<?xml version="1.0" encoding="utf-8"?><svg viewBox="0 0 20.2 19.2" xmlns="http://www.w3.org/2000/svg" xmlns:xlink="http://www.w3.org/1999/xlink"><style>:root>svg{display:none}:root>svg:target{display:block}</style><svg viewBox="0 0 20.2 18.11" id="ico-heart" xmlns="http://www.w3.org/2000/svg"><g clip-path="url(#aclip0)"><path d="M6.887 16.716c.688.587 1.467 1.25 2.274 1.956a1.273 1.273 0 0 0 1.678 0 263.34 263.34 0 0 1 2.277-1.959l.007-.005c2.01-1.712 3.754-3.2 4.97-4.667 1.365-1.646 2.007-3.216 2.007-4.937 0-1.666-.571-3.207-1.613-4.337A5.478 5.478 0 0 0 14.413.994a5.13 5.13 0 0 0-3.204 1.105A6.49 6.49 0 0 0 10 3.337a6.476 6.476 0 0 0-1.21-1.238A5.13 5.13 0 0 0 5.588.994a5.48 5.48 0 0 0-4.074 1.773C.471 3.897-.1 5.438-.1 7.104c0 1.72.642 3.29 2.007 4.937l.076-.063-.076.063c1.216 1.468 2.962 2.955 4.973 4.669l.004.003.003.003zm-3.924-5.55l-.077.064.077-.064C1.787 9.748 1.27 8.497 1.27 7.104c0-1.326.446-2.535 1.25-3.407a4.12 4.12 0 0 1 3.066-1.332c.866 0 1.661.275 2.365.82.628.486 1.068 1.102 1.327 1.536.153.256.423.41.721.41a.834.834 0 0 0 .721-.41l-.086-.052.086.052c.259-.434.699-1.05 1.327-1.537a3.786 3.786 0 0 1 2.365-.819 4.12 4.12 0 0 1 3.066 1.332c.804.872 1.25 2.081 1.25 3.407 0 1.393-.516 2.644-1.691 4.062-1.14 1.374-2.836 2.82-4.811 4.504-.673.573-1.433 1.22-2.229 1.913-.79-.691-1.55-1.338-2.22-1.91h-.001l-.003-.003c-1.976-1.684-3.673-3.13-4.811-4.504z"/></g><defs><clipPath id="aclip0"><path d="M0 0h20v20H0z"/></clipPath></defs></svg><svg viewBox="0 0 9.69 13.04" id="ico-location" xmlns="http://www.w3.org/2000/svg"><g clip-path="url(#bclip0)"><path d="M6.5 0a4.854 4.854 0 0 0-4.848 4.85c0 3.984 4.365 7.874 4.551 8.038a.448.448 0 0 0 .594 0c.185-.164 4.55-4.054 4.55-8.038A4.854 4.854 0 0 0 6.5 0zm0 3.488c.742 0 1.346.611 1.346 1.362 0 .75-.604 1.361-1.346 1.361-.743 0-1.347-.61-1.347-1.361S5.757 3.488 6.5 3.488z"/></g><defs><clipPath id="bclip0"><path d="M0 0h13v13H0z"/></clipPath></defs></svg><svg viewBox="0 0 13.33 13.37" id="ico-tel" xmlns="http://www.w3.org/2000/svg"><g clip-path="url(#cclip0)"><path d="M12.709 10.274L10.7 8.266c-.4-.398-1.062-.386-1.476.028l-1.011 1.01a29.59 29.59 0 0 1-.2-.11c-.639-.354-1.513-.84-2.433-1.76-.923-.922-1.408-1.798-1.763-2.437-.038-.068-.073-.133-.109-.195l.679-.678.334-.334c.414-.414.426-1.076.027-1.476L2.74.306c-.398-.399-1.06-.387-1.475.028L.7.903l.016.015a3.27 3.27 0 0 0-.467.823 3.41 3.41 0 0 0-.207.834c-.265 2.197.74 4.206 3.465 6.932 3.767 3.767 6.803 3.482 6.934 3.468a3.38 3.38 0 0 0 1.657-.674l.012.01.573-.56c.413-.415.425-1.077.027-1.477z"/></g><defs><clipPath id="cclip0"><path d="M0 0h13v13H0z"/></clipPath></defs></svg><svg viewBox="0 0 13 13" id="ico-time" xmlns="http://www.w3.org/2000/svg"><path d="M6.5 0a6.5 6.5 0 1 0 0 13 6.5 6.5 0 0 0 0-13zm2.81 7.736H6.554l-.027-.002-.027.002a.45.45 0 0 1-.45-.45V2.699a.45.45 0 0 1 .9 0v4.14h2.36a.45.45 0 0 1 0 .898z"/></svg><svg viewBox="0 0 19.25 19.2" id="ico-zoom" xmlns="http://www.w3.org/2000/svg"><g clip-path="url(#eclip0)"><path d="M18.904 17.96l-4.551-4.551A8.167 8.167 0 0 0 16.305 8.1c0-4.525-3.68-8.201-8.201-8.201C3.578-.1-.098 3.58-.098 8.101s3.68 8.202 8.202 8.202a8.167 8.167 0 0 0 5.307-1.953l4.551 4.552a.672.672 0 0 0 .471.198.67.67 0 0 0 .471-1.14zM1.235 8.101A6.872 6.872 0 0 1 8.1 1.237a6.872 6.872 0 0 1 6.864 6.864c0 3.783-3.077 6.868-6.864 6.868-3.782 0-6.864-3.08-6.864-6.868z"/></g><defs><clipPath id="eclip0"><path d="M0 0h19v19H0z"/></clipPath></defs></svg></svg>