<?xml version="1.0" encoding="utf-8"?><svg viewBox="0 0 20.2 18.11" xmlns="http://www.w3.org/2000/svg" xmlns:xlink="http://www.w3.org/1999/xlink"><style>:root>svg{display:none}:root>svg:target{display:block}</style><svg fill="none" viewBox="0 0 20.2 18.11" id="ico-heart" xmlns="http://www.w3.org/2000/svg"><g clip-path="url(#aclip0)"><path d="M6.887 16.716h0c.688.587 1.467 1.25 2.274 1.956a1.273 1.273 0 0 0 1.678 0 263.34 263.34 0 0 1 2.277-1.959h0l.007-.005c2.01-1.712 3.754-3.2 4.97-4.667 1.365-1.646 2.007-3.216 2.007-4.937 0-1.666-.571-3.207-1.613-4.337A5.478 5.478 0 0 0 14.413.994a5.13 5.13 0 0 0-3.204 1.105A6.49 6.49 0 0 0 10 3.337a6.476 6.476 0 0 0-1.21-1.238h0A5.13 5.13 0 0 0 5.588.994a5.48 5.48 0 0 0-4.074 1.773h0C.471 3.897-.1 5.438-.1 7.104c0 1.72.642 3.29 2.007 4.937l.076-.063-.076.063c1.216 1.468 2.962 2.955 4.973 4.669l.004.003h0l.003.003zm-3.924-5.55l-.077.064.077-.064C1.787 9.748 1.27 8.497 1.27 7.104c0-1.326.446-2.535 1.25-3.407a4.12 4.12 0 0 1 3.066-1.332c.866 0 1.661.275 2.365.82.628.486 1.068 1.102 1.327 1.536h0c.153.256.423.41.721.41a.834.834 0 0 0 .721-.41l-.086-.052.086.052c.259-.434.699-1.05 1.327-1.537a3.786 3.786 0 0 1 2.365-.819 4.12 4.12 0 0 1 3.066 1.332c.804.872 1.25 2.081 1.25 3.407 0 1.393-.516 2.644-1.691 4.062-1.14 1.374-2.836 2.82-4.811 4.504-.673.573-1.433 1.22-2.229 1.913-.79-.691-1.55-1.338-2.22-1.91h-.001l-.003-.003s0 0 0 0c-1.976-1.684-3.673-3.13-4.811-4.504z" fill="#344AA3" stroke="#344AA3" stroke-width=".2"/></g><defs><clipPath id="aclip0"><path fill="#fff" d="M0 0h20v20H0z"/></clipPath></defs></svg></svg>